<svg xmlns="http://www.w3.org/2000/svg" width="1200" height="630" viewBox="0 0 1200 630">
  <defs>
    <linearGradient id="bg" x1="0" y1="0" x2="1200" y2="630" gradientUnits="userSpaceOnUse">
      <stop stop-color="#f1f5ef"/>
      <stop offset="1" stop-color="#fbe9dc"/>
    </linearGradient>
    <linearGradient id="leaf" x1="0" y1="0" x2="48" y2="48" gradientUnits="userSpaceOnUse">
      <stop stop-color="#6f9479"/>
      <stop offset="1" stop-color="#86ab8e"/>
    </linearGradient>
  </defs>
  <rect width="1200" height="630" fill="url(#bg)"/>
  <circle cx="150" cy="120" r="90" fill="#e3efe1"/>
  <circle cx="1060" cy="540" r="120" fill="#fbddc6"/>
  <g transform="translate(120 250) scale(2.8)">
    <path d="M24 40V20" stroke="#4f7059" stroke-width="3.6" stroke-linecap="round"/>
    <path d="M24 27c-3.5 0-9-2-11-6-1.4-2.8-1-5 .4-6 3.4 0 9 2 11 6 1.4 2.8 1 5-.4 6Z" fill="url(#leaf)"/>
    <path d="M24.5 22c1-4 5.5-8.5 10.5-9 1.6 3 .8 8-3 11-2.8 2.1-5.7 2.2-7.5-2Z" fill="#ef9e76"/>
  </g>
  <text x="250" y="300" font-family="Hiragino Sans, sans-serif" font-size="64" font-weight="700" fill="#4f7059">あしたの働き方</text>
  <text x="252" y="376" font-family="Hiragino Sans, sans-serif" font-size="34" fill="#6b6a62">今の働き方から、自分に合う仕事へ。</text>
</svg>
